<?xml version="1.0" encoding="UTF-8" standalone="no"?>
<svg width="155.222mm" height="245.533mm"
 viewBox="0 0 440 696"
 xmlns="http://www.w3.org/2000/svg" xmlns:xlink="http://www.w3.org/1999/xlink"  version="1.2" baseProfile="tiny">
<title>Qt SVG Document</title>
<desc>Generated with Qt</desc>
<defs>
</defs>
<g fill="none" stroke="black" stroke-width="1" fill-rule="evenodd" stroke-linecap="square" stroke-linejoin="bevel" >

<g fill="#000000" fill-opacity="1" stroke="none" transform="matrix(1,0,0,1,0,0)"
font-family="Ubuntu Sans" font-size="11" font-weight="400" font-style="normal" 
>
<rect x="0" y="0" width="440" height="696"/>
</g>

<g fill="none" stroke="#7d7d7d" stroke-opacity="1" stroke-width="4" stroke-linecap="square" stroke-linejoin="bevel" transform="matrix(1,0,0,1,0,0)"
font-family="Ubuntu Sans" font-size="11" font-weight="400" font-style="normal" 
>
<polyline fill="none" vector-effect="none" points="93.1196,478.303 160.716,473.457 " />
</g>

<g fill="#f0f0f0" fill-opacity="1" stroke="#000000" stroke-opacity="1" stroke-width="1" stroke-linecap="square" stroke-linejoin="bevel" transform="matrix(1,0,0,1,0,0)"
font-family="Ubuntu Sans" font-size="11" font-weight="400" font-style="normal" 
>
<circle cx="94" cy="480" r="24"/>
</g>

<g fill="#f0f0f0" fill-opacity="1" stroke="#7d7d7d" stroke-opacity="1" stroke-width="4" stroke-linecap="square" stroke-linejoin="bevel" transform="matrix(1,0,0,1,0,0)"
font-family="Ubuntu Sans" font-size="11" font-weight="400" font-style="normal" 
>
<polyline fill="none" vector-effect="none" points="226.593,217.111 230.889,288.716 " />
</g>

<g fill="#f0f0f0" fill-opacity="1" stroke="#000000" stroke-opacity="1" stroke-width="1" stroke-linecap="square" stroke-linejoin="bevel" transform="matrix(1,0,0,1,0,0)"
font-family="Ubuntu Sans" font-size="11" font-weight="400" font-style="normal" 
>
<circle cx="228.5" cy="218.5" r="21.5"/>
</g>

<g fill="#f0f0f0" fill-opacity="1" stroke="#7d7d7d" stroke-opacity="1" stroke-width="4" stroke-linecap="square" stroke-linejoin="bevel" transform="matrix(1,0,0,1,0,0)"
font-family="Ubuntu Sans" font-size="11" font-weight="400" font-style="normal" 
>
<polyline fill="none" vector-effect="none" points="361.557,443.773 243.55,412.76 " />
<polyline fill="none" vector-effect="none" points="359.778,450.543 241.771,419.53 " />
</g>

<g fill="#ff0d0d" fill-opacity="1" stroke="#000000" stroke-opacity="1" stroke-width="1" stroke-linecap="square" stroke-linejoin="bevel" transform="matrix(1,0,0,1,0,0)"
font-family="Ubuntu Sans" font-size="11" font-weight="400" font-style="normal" 
>
<circle cx="361" cy="452" r="26"/>
</g>

<g fill="#ff0d0d" fill-opacity="1" stroke="#7d7d7d" stroke-opacity="1" stroke-width="4" stroke-linecap="square" stroke-linejoin="bevel" transform="matrix(1,0,0,1,0,0)"
font-family="Ubuntu Sans" font-size="11" font-weight="400" font-style="normal" 
>
<polyline fill="none" vector-effect="none" points="160.716,473.457 241.771,419.53 " />
</g>

<g fill="#ff0d0d" fill-opacity="1" stroke="#000000" stroke-opacity="1" stroke-width="1" stroke-linecap="square" stroke-linejoin="bevel" transform="matrix(1,0,0,1,0,0)"
font-family="Ubuntu Sans" font-size="11" font-weight="400" font-style="normal" 
>
<circle cx="162.5" cy="474.5" r="36.5"/>
</g>

<g fill="#ff0d0d" fill-opacity="1" stroke="#7d7d7d" stroke-opacity="1" stroke-width="4" stroke-linecap="square" stroke-linejoin="bevel" transform="matrix(1,0,0,1,0,0)"
font-family="Ubuntu Sans" font-size="11" font-weight="400" font-style="normal" 
>
<polyline fill="none" vector-effect="none" points="241.771,419.53 230.889,288.716 " />
</g>

<g fill="#7f7f7f" fill-opacity="1" stroke="#000000" stroke-opacity="1" stroke-width="1" stroke-linecap="square" stroke-linejoin="bevel" transform="matrix(1,0,0,1,0,0)"
font-family="Ubuntu Sans" font-size="11" font-weight="400" font-style="normal" 
>
<circle cx="243" cy="421" r="40"/>
</g>

<g fill="#7f7f7f" fill-opacity="1" stroke="#7d7d7d" stroke-opacity="1" stroke-width="4" stroke-linecap="square" stroke-linejoin="bevel" transform="matrix(1,0,0,1,0,0)"
font-family="Ubuntu Sans" font-size="11" font-weight="400" font-style="normal" 
>
<polyline fill="none" vector-effect="none" points="230.889,288.716 150.691,277.259 " />
<polyline fill="none" vector-effect="none" points="230.889,288.716 305.358,268.667 " />
</g>

<g fill="#7f7f7f" fill-opacity="1" stroke="#000000" stroke-opacity="1" stroke-width="1" stroke-linecap="square" stroke-linejoin="bevel" transform="matrix(1,0,0,1,0,0)"
font-family="Ubuntu Sans" font-size="11" font-weight="400" font-style="normal" 
>
<circle cx="232" cy="290" r="39"/>
</g>

<g fill="#f0f0f0" fill-opacity="1" stroke="#000000" stroke-opacity="1" stroke-width="1" stroke-linecap="square" stroke-linejoin="bevel" transform="matrix(1,0,0,1,0,0)"
font-family="Ubuntu Sans" font-size="11" font-weight="400" font-style="normal" 
>
<circle cx="152" cy="279" r="21"/>
</g>

<g fill="#f0f0f0" fill-opacity="1" stroke="#000000" stroke-opacity="1" stroke-width="1" stroke-linecap="square" stroke-linejoin="bevel" transform="matrix(1,0,0,1,0,0)"
font-family="Ubuntu Sans" font-size="11" font-weight="400" font-style="normal" 
>
<circle cx="306.5" cy="270.5" r="23.5"/>
</g>
</g>
</svg>
