<?xml version="1.0" encoding="UTF-8" standalone="no"?>
<svg width="265.994mm" height="245.533mm"
 viewBox="0 0 754 696"
 xmlns="http://www.w3.org/2000/svg" xmlns:xlink="http://www.w3.org/1999/xlink"  version="1.2" baseProfile="tiny">
<title>Qt SVG Document</title>
<desc>Generated with Qt</desc>
<defs>
</defs>
<g fill="none" stroke="black" stroke-width="1" fill-rule="evenodd" stroke-linecap="square" stroke-linejoin="bevel" >

<g fill="#000000" fill-opacity="1" stroke="none" transform="matrix(1,0,0,1,0,0)"
font-family="Ubuntu Sans" font-size="11" font-weight="400" font-style="normal" 
>
<rect x="0" y="0" width="754" height="696"/>
</g>

<g fill="none" stroke="#7d7d7d" stroke-opacity="1" stroke-width="4" stroke-linecap="square" stroke-linejoin="bevel" transform="matrix(1,0,0,1,0,0)"
font-family="Ubuntu Sans" font-size="11" font-weight="400" font-style="normal" 
>
<polyline fill="none" vector-effect="none" points="340.951,573.923 354.027,505.812 " />
</g>

<g fill="#ff0d0d" fill-opacity="1" stroke="#000000" stroke-opacity="1" stroke-width="1" stroke-linecap="square" stroke-linejoin="bevel" transform="matrix(1,0,0,1,0,0)"
font-family="Ubuntu Sans" font-size="11" font-weight="400" font-style="normal" 
>
<circle cx="342" cy="575" r="26"/>
</g>

<g fill="#ff0d0d" fill-opacity="1" stroke="#7d7d7d" stroke-opacity="1" stroke-width="4" stroke-linecap="square" stroke-linejoin="bevel" transform="matrix(1,0,0,1,0,0)"
font-family="Ubuntu Sans" font-size="11" font-weight="400" font-style="normal" 
>
<polyline fill="none" vector-effect="none" points="215.125,465.847 284.158,444.06 " />
</g>

<g fill="#ff0d0d" fill-opacity="1" stroke="#000000" stroke-opacity="1" stroke-width="1" stroke-linecap="square" stroke-linejoin="bevel" transform="matrix(1,0,0,1,0,0)"
font-family="Ubuntu Sans" font-size="11" font-weight="400" font-style="normal" 
>
<circle cx="216" cy="467" r="23"/>
</g>

<g fill="#ff0d0d" fill-opacity="1" stroke="#7d7d7d" stroke-opacity="1" stroke-width="4" stroke-linecap="square" stroke-linejoin="bevel" transform="matrix(1,0,0,1,0,0)"
font-family="Ubuntu Sans" font-size="11" font-weight="400" font-style="normal" 
>
<polyline fill="none" vector-effect="none" points="495.13,380.346 432.3,401.979 " />
</g>

<g fill="#ff0d0d" fill-opacity="1" stroke="#000000" stroke-opacity="1" stroke-width="1" stroke-linecap="square" stroke-linejoin="bevel" transform="matrix(1,0,0,1,0,0)"
font-family="Ubuntu Sans" font-size="11" font-weight="400" font-style="normal" 
>
<circle cx="496" cy="382" r="25"/>
</g>

<g fill="#ff0d0d" fill-opacity="1" stroke="#7d7d7d" stroke-opacity="1" stroke-width="4" stroke-linecap="square" stroke-linejoin="bevel" transform="matrix(1,0,0,1,0,0)"
font-family="Ubuntu Sans" font-size="11" font-weight="400" font-style="normal" 
>
<polyline fill="none" vector-effect="none" points="242.312,297.254 306.052,364.94 " />
<polyline fill="none" vector-effect="none" points="242.312,297.254 249.523,231.852 " />
</g>

<g fill="#7f7f7f" fill-opacity="1" stroke="#000000" stroke-opacity="1" stroke-width="1" stroke-linecap="square" stroke-linejoin="bevel" transform="matrix(1,0,0,1,0,0)"
font-family="Ubuntu Sans" font-size="11" font-weight="400" font-style="normal" 
>
<circle cx="243" cy="298" r="30"/>
</g>

<g fill="#7f7f7f" fill-opacity="1" stroke="#7d7d7d" stroke-opacity="1" stroke-width="4" stroke-linecap="square" stroke-linejoin="bevel" transform="matrix(1,0,0,1,0,0)"
font-family="Ubuntu Sans" font-size="11" font-weight="400" font-style="normal" 
>
<polyline fill="none" vector-effect="none" points="430.013,476.9 354.027,505.812 " />
<polyline fill="none" vector-effect="none" points="430.013,476.9 432.3,401.979 " />
<polyline fill="none" vector-effect="none" points="430.013,476.9 470.122,528.159 " />
</g>

<g fill="#7f7f7f" fill-opacity="1" stroke="#000000" stroke-opacity="1" stroke-width="1" stroke-linecap="square" stroke-linejoin="bevel" transform="matrix(1,0,0,1,0,0)"
font-family="Ubuntu Sans" font-size="11" font-weight="400" font-style="normal" 
>
<circle cx="431.5" cy="478.5" r="42.5"/>
</g>

<g fill="#7f7f7f" fill-opacity="1" stroke="#7d7d7d" stroke-opacity="1" stroke-width="4" stroke-linecap="square" stroke-linejoin="bevel" transform="matrix(1,0,0,1,0,0)"
font-family="Ubuntu Sans" font-size="11" font-weight="400" font-style="normal" 
>
<polyline fill="none" vector-effect="none" points="354.027,505.812 284.158,444.06 " />
</g>

<g fill="#7f7f7f" fill-opacity="1" stroke="#000000" stroke-opacity="1" stroke-width="1" stroke-linecap="square" stroke-linejoin="bevel" transform="matrix(1,0,0,1,0,0)"
font-family="Ubuntu Sans" font-size="11" font-weight="400" font-style="normal" 
>
<circle cx="355.5" cy="507.5" r="41.5"/>
</g>

<g fill="#ff0d0d" fill-opacity="1" stroke="#000000" stroke-opacity="1" stroke-width="1" stroke-linecap="square" stroke-linejoin="bevel" transform="matrix(1,0,0,1,0,0)"
font-family="Ubuntu Sans" font-size="11" font-weight="400" font-style="normal" 
>
<circle cx="471.5" cy="529.5" r="26.5"/>
</g>

<g fill="#ff0d0d" fill-opacity="1" stroke="#7d7d7d" stroke-opacity="1" stroke-width="4" stroke-linecap="square" stroke-linejoin="bevel" transform="matrix(1,0,0,1,0,0)"
font-family="Ubuntu Sans" font-size="11" font-weight="400" font-style="normal" 
>
<polyline fill="none" vector-effect="none" points="284.158,444.06 306.052,364.94 " />
</g>

<g fill="#7f7f7f" fill-opacity="1" stroke="#000000" stroke-opacity="1" stroke-width="1" stroke-linecap="square" stroke-linejoin="bevel" transform="matrix(1,0,0,1,0,0)"
font-family="Ubuntu Sans" font-size="11" font-weight="400" font-style="normal" 
>
<circle cx="285.5" cy="445.5" r="38.5"/>
</g>

<g fill="#ff0d0d" fill-opacity="1" stroke="#000000" stroke-opacity="1" stroke-width="1" stroke-linecap="square" stroke-linejoin="bevel" transform="matrix(1,0,0,1,0,0)"
font-family="Ubuntu Sans" font-size="11" font-weight="400" font-style="normal" 
>
<circle cx="250.5" cy="233.5" r="19.5"/>
</g>

<g fill="#ff0d0d" fill-opacity="1" stroke="#7d7d7d" stroke-opacity="1" stroke-width="4" stroke-linecap="square" stroke-linejoin="bevel" transform="matrix(1,0,0,1,0,0)"
font-family="Ubuntu Sans" font-size="11" font-weight="400" font-style="normal" 
>
<polyline fill="none" vector-effect="none" points="377.53,356.752 306.052,364.94 " />
<polyline fill="none" vector-effect="none" points="377.53,356.752 432.3,401.979 " />
</g>

<g fill="#ff0d0d" fill-opacity="1" stroke="#000000" stroke-opacity="1" stroke-width="1" stroke-linecap="square" stroke-linejoin="bevel" transform="matrix(1,0,0,1,0,0)"
font-family="Ubuntu Sans" font-size="11" font-weight="400" font-style="normal" 
>
<circle cx="378.5" cy="358.5" r="34.5"/>
</g>

<g fill="#7f7f7f" fill-opacity="1" stroke="#000000" stroke-opacity="1" stroke-width="1" stroke-linecap="square" stroke-linejoin="bevel" transform="matrix(1,0,0,1,0,0)"
font-family="Ubuntu Sans" font-size="11" font-weight="400" font-style="normal" 
>
<circle cx="308" cy="366" r="37"/>
</g>

<g fill="#7f7f7f" fill-opacity="1" stroke="#000000" stroke-opacity="1" stroke-width="1" stroke-linecap="square" stroke-linejoin="bevel" transform="matrix(1,0,0,1,0,0)"
font-family="Ubuntu Sans" font-size="11" font-weight="400" font-style="normal" 
>
<circle cx="433.5" cy="403.5" r="40.5"/>
</g>
</g>
</svg>
